<svg width="48" height="48" viewBox="0 0 48 48" fill="none" xmlns="http://www.w3.org/2000/svg">
<path d="M24 0C10.7464 0 0 10.7464 0 24C0 37.2536 10.7464 48 24 48C37.2536 48 48 37.2536 48 24C48 10.7464 37.2536 0 24 0ZM24 43.9286C12.9964 43.9286 4.07143 35.0036 4.07143 24C4.07143 12.9964 12.9964 4.07143 24 4.07143C35.0036 4.07143 43.9286 12.9964 43.9286 24C43.9286 35.0036 35.0036 43.9286 24 43.9286ZM19.2857 15.4286H16.7143C16.4786 15.4286 16.2857 15.6214 16.2857 15.8571V32.1429C16.2857 32.3786 16.4786 32.5714 16.7143 32.5714H19.2857C19.5214 32.5714 19.7143 32.3786 19.7143 32.1429V15.8571C19.7143 15.6214 19.5214 15.4286 19.2857 15.4286ZM31.2857 15.4286H28.7143C28.4786 15.4286 28.2857 15.6214 28.2857 15.8571V32.1429C28.2857 32.3786 28.4786 32.5714 28.7143 32.5714H31.2857C31.5214 32.5714 31.7143 32.3786 31.7143 32.1429V15.8571C31.7143 15.6214 31.5214 15.4286 31.2857 15.4286Z" fill="#323238"/>
</svg>
